<svg width="437" height="96" viewBox="0 0 437 96" fill="none" xmlns="http://www.w3.org/2000/svg">
<g clip-path="url(#clip0_196_73)">
<path d="M431.182 0H431.664C431.122 2.71639 428.857 4.85148 427.201 7.11586C424.646 10.6158 422.21 14.201 419.897 17.8653L421.499 19.151C423.726 20.9697 425.405 22.5583 427.464 24.5963C420.625 32.4964 414.671 40.777 409.577 49.9211C407.676 53.3335 401.192 68.0659 399.43 69.8746C397.045 72.3223 391.01 73.4737 387.923 76.0872C387.537 76.4147 387.501 76.4151 387.46 76.9097C387.59 77.1706 387.846 77.6994 388.068 77.8671C389.888 79.232 395.327 74.9551 396.816 76.2334C396.944 77.3943 394.615 81.856 394.506 83.5189C394.451 84.3578 393.463 86.8971 392.704 87.2932C391.272 87.4773 386.153 86.2084 384.704 85.6617C364.281 77.9522 353.538 56.743 361.171 35.9038C364.554 26.3979 371.628 18.6581 380.792 14.435C389.771 10.2801 399.839 9.93615 409.417 12.5551C411.113 13.0186 413.974 14.6366 415.953 15.3656C419.065 11.8118 422.333 8.40028 425.753 5.14146C426.771 4.16026 430.6 0.768872 431.182 0Z" fill="white"/>
<path d="M431.181 0H431.663C431.121 2.71639 428.856 4.85148 427.2 7.11586C424.645 10.6158 422.209 14.201 419.896 17.8653C419.32 18.7917 418.712 19.7375 418.19 20.6925C418.235 21.3197 418.299 21.9959 418.279 22.6197C417.241 25.7468 414.664 29.6079 412.477 32.0691C411.059 34.6812 409.145 38.7514 407.34 40.8627L406.929 40.087C402.236 48.275 398.217 57.4148 394.352 66.0388C394.209 66.0896 394.064 66.1402 393.921 66.1909C393.362 65.9159 393.242 65.7231 392.869 65.2439C392.513 65.6126 392.63 65.5968 392.191 65.7039C391.519 63.7562 387.999 59.0076 386.595 56.6854C386.442 55.4886 385.93 55.0684 385.108 54.2449C383.677 52.8107 382.694 51.5215 381.634 49.7815C380.712 48.8294 376.202 45.7613 375.029 45.2205C372.13 43.8852 370.998 44.1771 368.412 41.8554C369.101 40.778 369.767 39.8451 370.518 38.8102L371.512 37.5774C370.234 36.8659 369.573 36.3418 368.77 35.1281C368.83 34.7255 368.956 34.3004 369.105 33.9232C369.801 32.1632 371.748 30.3791 373.453 29.6378C374.88 29.0182 376.435 28.9412 377.86 29.5991C382.677 31.8244 391.909 47.9115 392.562 48.1675C393.02 48.1203 393.539 48.1478 393.812 47.6766C400.209 36.6108 407.462 24.9193 415.952 15.3656C419.064 11.8118 422.332 8.40028 425.752 5.14146C426.769 4.16026 430.599 0.768873 431.181 0Z" fill="#FD5757"/>
<path d="M371.512 37.5781C375.767 39.6603 377.736 42.0556 380.861 45.6701C381.386 46.2772 382.502 47.6142 382.807 48.2847L382.617 48.7525C382.913 49.3787 384.129 51.681 383.978 52.1987C383.607 51.7898 382.071 49.5335 381.977 49.4849L381.634 49.7823C380.712 48.8302 376.202 45.762 375.029 45.2212C372.13 43.886 370.998 44.1778 368.412 41.8561C369.101 40.7788 369.767 39.8459 370.518 38.811L371.512 37.5781Z" fill="#00353D"/>
<path d="M412.043 30.7216C412.941 28.7925 416.875 22.4161 418.191 20.6914C418.236 21.3186 418.3 21.9948 418.28 22.6186C417.242 25.7456 414.665 29.6068 412.478 32.068C412.395 31.5268 412.248 31.2183 412.043 30.7216Z" fill="#00353D"/>
<path d="M387.577 55.4473C389.023 58.0231 391.863 62.685 392.869 65.2431C392.513 65.6117 392.63 65.596 392.191 65.7031C391.519 63.7553 387.999 59.0067 386.596 56.6846C386.901 56.4147 387.321 55.7973 387.577 55.4473Z" fill="#00353D"/>
<path d="M381.635 49.7828L381.978 49.4854C382.072 49.534 383.608 51.7902 383.979 52.1992C384.131 51.6814 382.915 49.3791 382.618 48.753L382.808 48.2852C384.122 50.2333 386.541 53.5449 387.578 55.4493C387.322 55.7994 386.902 56.4168 386.597 56.6867C386.443 55.4899 385.931 55.0696 385.11 54.2461C383.678 52.8119 382.695 51.5227 381.635 49.7828Z" fill="#00353D"/>
<path d="M412.043 30.7227C412.248 31.2193 412.395 31.5278 412.478 32.069C411.06 34.6811 409.146 38.7512 407.341 40.8626L406.93 40.0869C407.811 37.8693 410.748 33.0904 412.043 30.7227Z" fill="#00353D"/>
<path d="M406.93 40.0859L407.341 40.8616C402.719 49.6475 397.932 58.7008 394.427 67.9601C394.312 68.2649 394.088 68.3063 393.802 68.4388C392.646 67.9874 392.535 66.8264 392.191 65.7028C392.631 65.5957 392.514 65.6115 392.87 65.2428C393.243 65.722 393.363 65.9148 393.921 66.1898C394.064 66.1391 394.209 66.0885 394.352 66.0377C398.218 57.4137 402.237 48.2739 406.93 40.0859Z" fill="#00353D"/>
<path d="M419.896 17.8652L421.498 19.1509C420.576 19.9533 418.915 21.607 418.279 22.6197C418.298 21.9959 418.234 21.3197 418.189 20.6925C418.712 19.7375 419.32 18.7917 419.896 17.8652Z" fill="#00353D"/>
<path d="M368.771 35.1289C369.573 36.3426 370.235 36.8667 371.512 37.5782L370.518 38.811C370.249 38.5625 369.989 38.3067 369.733 38.0439C368.754 37.0199 368.741 36.5032 368.771 35.1289Z" fill="white"/>
<path d="M196.162 60.2745C200.825 54.4731 205.546 48.7184 210.324 43.0111C213.537 39.1722 216.811 35.3379 219.87 31.3774C224.427 25.4759 217.127 26.9172 215.945 25.8469L215.909 25.5338C216.44 24.9217 216.596 24.7636 217.498 24.7459C222.398 24.6499 227.313 24.77 232.213 24.7489C232.637 24.7472 233.345 25.1786 233.676 25.4378L233.791 25.7996C232.827 26.7018 229.687 25.9958 226.901 28.3271C222.677 31.8614 219.52 36.1503 216.001 40.3869C213.311 43.6251 209.532 47.905 207.161 51.2524C211.679 57.5022 217.551 64.6727 222.328 70.8543L228.166 78.3717C230.325 81.1922 231.967 83.9598 235.267 85.5329C236.603 86.1693 239.566 86.1627 240.12 87.4006C239.95 87.6923 239.918 87.7339 239.576 87.8226C238.514 88.0993 215.734 87.9495 214.285 87.6494L214.004 87.3462C214.332 86.8684 215.083 86.7018 215.632 86.6015C217.046 86.3429 218.729 86.3636 219.65 85.0525C220.726 83.5222 219.663 81.7802 218.669 80.549C217.123 78.6363 215.655 76.6657 214.185 74.6981C209.991 69.0625 205.752 63.4591 201.47 57.8887C197.533 61.951 196.391 65.0175 196.2 70.725C196.055 75.0631 194.978 81.2295 197.919 84.7811C199.217 86.2939 204.137 86.0551 205.072 86.9552C204.943 87.5615 204.712 87.749 204.055 87.7799C197.587 88.0848 191.067 87.7725 184.584 87.9338C184.339 87.4956 184.631 86.011 184.653 85.2285C186.82 83.2673 187.138 81.6628 187.233 78.7651C187.336 75.6155 187.277 72.3495 187.278 69.1939L187.32 52.9339L187.327 40.4741C187.321 36.7711 187.867 31.1033 185.635 27.9602C184.071 25.7569 179.676 27.1141 178.734 25.6014L178.908 25.0604C179.915 24.5624 202.367 24.511 204.336 25.1581L204.552 25.3799C202.944 27.5498 196.972 24.6299 196.329 31.7915C195.885 36.7395 195.992 41.9178 195.978 46.9334C196.043 51.0194 195.843 56.3269 196.162 60.2745Z" fill="white"/>
<path d="M102.589 85.5703C102.258 86.1719 101.872 86.7025 102.009 87.3715C102.714 88.0379 112.076 87.5454 114.004 87.8826C113.954 87.8863 113.904 87.8886 113.854 87.8901C111.486 87.9643 98.506 88.3678 97.375 87.3237L97.4078 86.9484C98.2874 85.9722 100.781 86.1721 102.589 85.5703Z" fill="white"/>
<path fill-rule="evenodd" clip-rule="evenodd" d="M77.3744 86.1653C75.9889 86.001 74.1786 85.7862 72.265 84.0822C72.1677 78.8796 74.0136 74.5996 75.8504 70.3406C76.8079 68.1204 77.763 65.9059 78.4391 63.5693C86.7547 63.5723 98.152 66.2027 102.826 73.8251C104.992 77.3588 106.984 82.8444 102.589 85.5717C101.883 85.8066 101.073 85.9194 100.294 86.0277C99.0797 86.1967 97.9436 86.3547 97.4075 86.9498L97.3747 87.3251C98.5057 88.3691 111.485 87.9657 113.853 87.8915C113.904 87.89 113.954 87.8876 114.004 87.884C115.706 88.0775 122.995 87.9736 124.51 87.5452L124.561 87.1956C124.253 86.889 123.555 86.6721 122.704 86.4074C121.071 85.8998 118.873 85.2164 117.766 83.3873C114.842 78.5554 112.366 72.1613 110.157 66.4554C109.597 65.0073 109.053 63.6036 108.524 62.281L97.6083 35.2721C97.4873 34.9777 97.3285 34.5835 97.1418 34.1197C96.0182 31.3297 93.8803 26.0209 92.8498 24.7616C92.5746 24.6778 91.4048 24.6729 91.3233 24.8736C89.4186 29.5717 87.4827 34.2784 85.5447 38.9902C82.305 46.8669 79.0593 54.758 75.9435 62.6475C74.2689 66.9532 72.5396 71.2376 70.7558 75.4994C70.5394 76.0249 70.333 76.5493 70.1288 77.0681C68.5869 80.986 67.172 84.5811 62.5104 85.8906C62.1515 85.9914 61.7442 86.0244 61.335 86.0576C60.4458 86.1297 59.5477 86.2025 59.1172 86.9728C59.2427 87.4005 59.3986 87.5023 59.7374 87.7236C59.7745 87.7478 59.8138 87.7735 59.8555 87.8012C62.6331 88.0655 65.6495 87.9825 68.6609 87.8997C71.2966 87.8271 73.9285 87.7547 76.3932 87.9153C77.4081 87.9815 79.1403 88.0832 79.6388 87.056C79.2129 86.3834 78.413 86.2885 77.3744 86.1653ZM90.3222 39.5944C90.0184 38.6347 89.6214 37.3808 89.4827 37.2783C88.0171 39.0905 87.0773 41.6808 86.2026 44.0914C85.9291 44.8452 85.6619 45.5815 85.387 46.271C84.9012 47.4895 84.3935 48.7178 83.8828 49.9532C82.3799 53.5886 80.8512 57.2867 79.7795 60.9854C83.6581 61.2497 87.5202 61.714 91.3505 62.3766C92.6546 62.5664 93.9868 62.8392 95.3079 63.1096C96.8874 63.4329 98.451 63.753 99.9319 63.9245L90.6596 40.621C90.5965 40.4607 90.4704 40.0625 90.3222 39.5944Z" fill="white"/>
<path d="M264.959 47.9885C264.949 53.6841 264.43 77.4272 265.746 81.3658C266.536 83.7271 269.607 85.5759 272.022 85.8948C273.353 86.0708 275.032 85.8138 276.246 86.4224C276.779 87.0291 276.664 86.7537 276.783 87.5497L276.568 87.7666C273.347 88.0772 265.806 87.9031 262.31 87.8812C258.395 87.8562 251.066 88.1378 247.51 87.8014L247.277 87.5078C247.939 84.6377 252.303 86.9568 254.298 84.7701C257.003 81.8044 256.186 72.9446 256.19 69.0795L256.2 51.6757L256.183 33.7856C256.175 29.9684 256.147 25.8534 255.979 22.0881C255.674 15.31 249.37 17.564 247.766 15.7494C247.828 15.1737 247.732 15.3745 248.195 14.9552C250.863 14.4929 257.719 14.8433 260.896 14.8181L281.415 14.849C283.42 14.8405 294.433 14.4154 295.72 14.9538L295.914 15.497C295.98 15.8486 296.161 17.0062 296.323 17.2389L296.304 16.7738C296.791 18.9449 297.659 25.5808 296.716 27.5447C296.125 27.9326 296.259 27.8185 295.451 27.7681C294.359 26.9886 294.165 22.2658 291.799 19.902C287.076 15.184 272.016 16.3929 265.153 16.383C265.055 26.0631 265.049 35.744 265.13 45.4242C268.799 45.702 273.345 46.6042 276.798 46.4802C281.822 43.6224 279.704 41.0398 281.297 36.7177C281.807 36.4555 281.711 36.5372 282.334 36.566C282.592 36.8068 282.972 37.162 282.912 37.5375C282.498 40.1882 283.324 58.2805 282.637 59.2162L281.986 59.2493C280.252 58.2549 280.841 56.1758 280.02 54.6684C276.677 48.5342 270.787 48.3093 264.959 47.9885Z" fill="white"/>
<path d="M7.76007 14.6959C27.154 14.8867 46.5495 14.8767 65.9433 14.666C66.0472 17.924 66.0883 21.5116 66.3051 24.7402C65.5373 25.4511 65.4128 25.6849 64.9217 26.6167C62.9402 17.2536 58.2261 16.3837 49.3578 16.3506C46.3387 16.3394 44.4554 16.5352 41.6108 17.6994L41.5502 57.5609L41.5205 70.6336C41.5135 74.5346 40.9409 80.4945 43.3162 83.8617C45.0204 86.2775 50.8112 85.8276 51.869 86.6018C51.994 87.0886 52.0028 87.1831 51.8353 87.6559C51.1531 87.9526 23.3896 88.0785 21.8953 87.7286L21.6813 87.5251C21.7176 87.2435 21.7223 86.7008 21.967 86.6334C27.1007 85.2185 30.7667 86.5732 32.4505 79.857C32.4404 77.8372 32.2126 75.8735 32.1714 73.8391C31.8423 71.7361 32.0187 61.3126 32.0249 58.8006C32.0496 49.1116 31.9777 39.3423 32.0533 29.6495C32.0727 27.1742 32.5379 23.0063 32.6651 20.1761L32.6177 17.5026C26.6745 15.2573 12.2402 15.0655 10.2457 22.6043C9.9053 23.8912 9.1771 28.2651 8.40729 28.7195L8.26567 28.576L8.57893 28.6686C7.20817 27.6245 7.72722 16.5773 7.76007 14.6959Z" fill="white"/>
<path d="M309.103 85.6748C310.099 85.2464 311.752 84.6458 312.1 83.5606C313.422 79.4339 313.092 74.3235 313.113 70.0069L313.126 53.7541L313.064 39.4535C313.055 36.0082 313.544 32.5285 312.324 29.2227C311.123 25.9756 306.974 27.2993 304.994 25.7883L304.802 25.3249L304.951 25C306.922 24.44 328.743 24.5424 330.351 25.2041L330.479 25.4956C328.871 27.3211 322.132 25.3161 322.066 32.0912C321.919 47.3023 321.289 62.6126 321.932 77.8109C322.311 86.7408 335.059 86.5292 341.465 86.0705C345.463 85.7641 349.179 83.8934 351.805 80.8645C353.889 78.4613 354.748 74.2352 356.005 73.5679C357.088 74.3465 355.804 85.7733 355.757 87.8894C342.442 87.8938 328.638 88.0863 315.346 87.8815C313.254 88.0091 305.344 88.1496 303.838 87.3825L303.868 86.6975C304.644 86.1479 308.006 85.8269 309.103 85.6748Z" fill="white"/>
<path d="M315.346 87.8825C313.254 88.0101 305.344 88.1507 303.838 87.3835L303.868 86.6985C304.644 86.149 308.006 85.8279 309.103 85.6758C308.706 85.9166 308.377 86.114 308 86.3945C307.878 87.0458 307.829 86.8096 308.173 87.3468C309.636 88.0303 313.215 87.4977 315.346 87.8825Z" fill="white"/>
<path d="M154.102 86.9839C160.506 86.3804 165.166 81.3735 164.962 75.0202C165.008 73.3315 164.922 70.6789 163.908 69.2018C157.752 60.2347 143.633 58.7736 136.143 50.93C130.281 44.7926 131.695 34.2676 137.427 28.7262C141.362 24.9225 146.657 23.9141 151.879 24.0651C151.949 24.9972 150.377 25.3741 149.611 25.5648C146.392 26.4054 142.259 27.65 140.544 31.0339C138.3 35.4618 139.267 41.0302 142.964 44.5844C149.657 51.0189 170.485 55.7656 172.767 65.7012C174.334 67.7451 174.451 72.393 172.961 74.5082C170.424 83.9779 164.092 86.1564 155.495 88.4662C154.902 88.0589 154.547 87.5467 154.102 86.9839Z" fill="white"/>
<path d="M172.766 65.7012C174.332 67.7451 174.45 72.393 172.959 74.5082C172.763 72.6121 172.896 68.1421 172.766 65.7012Z" fill="white"/>
<path d="M421.218 66.5645C421.291 66.5819 421.538 66.7402 421.619 66.7889C421.933 68.1086 421.073 77.8588 420.95 79.8498C412.822 85.5059 406.798 87.431 396.932 87.7327L396.51 87.5597C396.631 85.6512 400.787 76.7511 401.617 74.4926C401.715 74.2278 402.387 73.3758 402.655 73.2648C408.101 71.0048 415.657 68.106 421.218 66.5645Z" fill="white"/>
<path d="M426.748 30.207L427.023 30.2636C427.883 31.4644 425.68 37.8038 425.577 39.6861C425.174 47.0062 422.397 56.1104 422.341 63.23C419.18 63.4269 408.9 66.6977 405.783 67.912C405.754 67.8892 405.724 67.8661 405.692 67.8433C405.538 67.6413 405.246 67.3942 405.329 67.1009C407.426 59.6778 422.35 34.3687 426.748 30.207Z" fill="white"/>
<path d="M431.219 30.4648C431.496 31.3054 431.688 31.3803 432.047 32.0388C436.706 40.6178 436.923 50.8442 434.816 59.9706C434.061 60.2647 432.653 60.611 431.829 60.8397C430.112 61.1633 428.994 61.3502 427.258 61.475C427.704 54.0207 428.621 46.6063 429.879 39.2525C430.379 36.3443 430.647 33.3894 431.219 30.4648Z" fill="white"/>
<path d="M134.338 82.2284C133.419 83.4186 132.184 87.2987 130.974 86.8833C130.358 85.5109 129.566 69.2733 130.276 68.4844L130.688 68.5268C131.465 69.3166 131.891 71.9357 132.217 73.1687C133.92 79.6035 136.803 81.8653 142.233 85.0471C144.821 86.2587 145.371 86.5164 148.164 86.821C148.41 86.9381 149.133 87.3275 149.348 87.2961C148.056 87.9299 148.754 88.1241 146.741 88.3865L144.335 87.9203C141.785 87.5489 136.119 84.1255 134.338 82.2284Z" fill="white"/>
<path d="M142.234 85.0469C144.823 86.2584 145.372 86.5161 148.166 86.8207C148.412 86.9379 149.134 87.3272 149.349 87.2958C148.058 87.9296 148.755 88.1238 146.743 88.3862L144.337 87.92C144.731 87.9145 145.282 87.9612 145.59 87.7498C144.233 87.11 143.026 86.3845 142.234 85.0469Z" fill="white"/>
<path d="M151.877 24.0645C156.738 24.2353 161.014 26.1127 164.64 29.3654C165.387 27.6922 165.613 26.9114 166.037 25.1271L166.297 24.8367C166.733 24.8911 167.487 24.9611 167.882 25.0825L167.93 30.5976C168.109 32.4549 168.873 40.7269 167.582 41.5469C164.265 39.7735 166.874 25.7459 149.609 25.5642C150.376 25.3735 151.948 24.9965 151.877 24.0645Z" fill="white"/>
<path d="M166.037 25.1282L166.298 24.8379C166.733 24.8923 167.488 24.9623 167.882 25.0836L167.931 30.5987C165.834 29.0331 167.743 25.9255 166.037 25.1282Z" fill="white"/>
<path d="M431.973 63.4152C432.449 63.3501 432.923 63.2185 433.319 63.4702C433.255 65.61 428.244 72.6312 426.77 74.5388C426.367 74.9663 426.551 74.877 426.011 74.9941C425.636 74.5695 425.665 73.5611 425.761 73.0143C426.941 66.2451 424.45 64.907 431.973 63.4152Z" fill="white"/>
<path d="M184.653 85.2285C184.632 86.011 184.34 87.4956 184.584 87.9338C182.267 87.9402 180.453 88.0164 178.153 87.665L177.909 87.1963L177.949 87.5984L177.787 87.3032C178.874 86.2534 182.612 86.1544 184.653 85.2285Z" fill="white"/>
<path d="M148.165 86.8203C150.13 86.9351 152.14 87.0947 154.102 86.9833C154.547 87.5461 154.902 88.0583 155.495 88.4655C151.552 89.0765 150.64 88.9984 146.742 88.3858C148.755 88.1234 148.057 87.9292 149.348 87.2954C149.134 87.3268 148.411 86.9374 148.165 86.8203Z" fill="white"/>
<path d="M66.3052 24.7402C66.3509 25.9266 66.59 28.0571 65.817 28.9542C65.2043 28.4588 65.0848 27.4073 64.9219 26.6167C65.4129 25.6849 65.5375 25.4511 66.3052 24.7402Z" fill="white"/>
</g>
<defs>
<clipPath id="clip0_196_73">
<rect width="436.875" height="96" fill="white"/>
</clipPath>
</defs>
</svg>
